<svg width="370" height="125" viewBox="0 0 370 125" preserveAspectRatio="xMinYMin slice" fill="none" xmlns="http://www.w3.org/2000/svg">
<path opacity="0.3" d="M98.3383 124.159C97.0655 121.847 94.9709 120.095 92.4679 119.249C89.9648 118.404 87.2352 118.526 84.8177 119.591C84.6247 118.397 84.1582 117.265 83.4546 116.281C82.7511 115.297 81.8295 114.488 80.7616 113.919C79.6938 113.349 78.5085 113.033 77.2983 112.995C76.088 112.957 74.8854 113.199 73.7842 113.702C73.1337 112.029 71.9258 110.63 70.3637 109.741C68.8017 108.853 66.9807 108.528 65.2071 108.822C63.4335 109.116 61.8155 110.011 60.6251 111.357C59.4348 112.702 58.7447 114.415 58.6711 116.209C57.2378 116.816 55.9563 117.732 54.9179 118.89C54.5236 117.944 53.852 117.139 52.9913 116.581C52.1307 116.023 51.1211 115.737 50.095 115.762C49.069 115.787 48.0744 116.121 47.2419 116.72C46.4093 117.319 45.7776 118.156 45.4297 119.12C44.3303 118.54 43.1157 118.212 41.8737 118.157C40.6317 118.103 39.393 118.325 38.2471 118.806C37.1012 119.287 36.0766 120.017 35.2471 120.941C34.4177 121.866 33.804 122.963 33.4504 124.153L98.3383 124.159Z" fill="#F1F2F2"/>
<path opacity="0.3" d="M368.523 29.5603C368.212 27.068 367 24.7748 365.115 23.112C363.23 21.4492 360.801 20.5313 358.285 20.5309C358.286 17.6149 357.398 14.7677 355.741 12.367C354.083 9.96616 351.734 8.12522 349.004 7.0883C346.274 6.05139 343.293 5.8675 340.456 6.56104C337.619 7.25457 335.061 8.79275 333.12 10.9716C331.93 10.6622 330.706 10.5058 329.477 10.5063C329.333 10.5063 329.19 10.5063 329.046 10.5063C328.074 7.13664 325.914 4.23168 322.965 2.3277C320.015 0.423714 316.476 -0.350745 312.999 0.147275C309.522 0.645295 306.343 2.38217 304.049 5.0373C301.755 7.69242 300.5 11.0865 300.517 14.5931C300.517 14.724 300.517 14.8548 300.517 14.9857C298.398 14.386 296.144 14.4754 294.08 15.2409C293.189 13.757 291.938 12.5211 290.442 11.6472C288.947 10.7732 287.255 10.2894 285.523 10.2403C283.791 10.1912 282.074 10.5784 280.531 11.3663C278.989 12.1541 277.67 13.3172 276.696 14.7482C275.213 14.4894 273.691 14.5576 272.237 14.948C270.783 15.3385 269.433 16.0418 268.28 17.0085C267.127 17.9752 266.2 19.1821 265.564 20.5443C264.927 21.9066 264.597 23.3913 264.597 24.8944C264.597 25.0554 264.597 25.2144 264.608 25.3753C261.958 24.5701 259.133 24.5359 256.464 25.2768C253.794 26.0176 251.392 27.5029 249.538 29.5583L368.523 29.5603Z" fill="#F1F2F2"/>
<path opacity="0.3" d="M369.091 110.876C368.961 109.84 368.456 108.887 367.672 108.196C366.888 107.506 365.878 107.124 364.832 107.124C364.832 105.912 364.463 104.728 363.773 103.73C363.084 102.732 362.107 101.967 360.972 101.536C359.837 101.105 358.598 101.028 357.418 101.317C356.238 101.605 355.175 102.244 354.367 103.15C353.872 103.02 353.363 102.954 352.851 102.953H352.672C352.265 101.556 351.366 100.353 350.14 99.5646C348.915 98.7762 347.447 98.4555 346.004 98.6615C344.561 98.8675 343.241 99.5863 342.286 100.686C341.332 101.786 340.806 103.192 340.807 104.647C340.807 104.702 340.807 104.757 340.807 104.81C339.926 104.561 338.988 104.598 338.129 104.916C337.758 104.3 337.237 103.787 336.615 103.424C335.992 103.062 335.289 102.862 334.569 102.842C333.848 102.822 333.135 102.984 332.494 103.312C331.853 103.641 331.305 104.125 330.9 104.72C330.283 104.613 329.651 104.641 329.046 104.804C328.442 104.966 327.88 105.259 327.401 105.661C326.921 106.063 326.536 106.565 326.271 107.131C326.007 107.698 325.869 108.315 325.869 108.94C325.869 109.007 325.869 109.074 325.869 109.136C324.767 108.801 323.592 108.787 322.482 109.095C321.371 109.403 320.372 110.021 319.601 110.876H369.091Z" fill="#F1F2F2"/>
<path opacity="0.3" d="M150.632 18.3835C149.36 16.0696 147.266 14.3159 144.762 13.4688C142.259 12.6217 139.528 12.7427 137.109 13.808C136.916 12.6145 136.45 11.4817 135.746 10.4978C135.043 9.51394 134.121 8.70554 133.053 8.13562C131.985 7.5657 130.8 7.24966 129.59 7.21213C128.379 7.1746 127.177 7.41659 126.076 7.91924C125.424 6.24624 124.215 4.84843 122.652 3.96094C121.089 3.07345 119.267 2.75044 117.494 3.04624C115.72 3.34203 114.103 4.23858 112.914 5.58509C111.725 6.93159 111.036 8.64589 110.965 10.4396C109.531 11.047 108.25 11.9625 107.211 13.1209C106.817 12.1749 106.145 11.3699 105.285 10.8117C104.424 10.2535 103.415 9.96808 102.388 9.99292C101.362 10.0178 100.368 10.3517 99.5353 10.9509C98.7027 11.5501 98.071 12.3866 97.7231 13.3506C96.6237 12.7711 95.4092 12.4423 94.1672 12.3881C92.9251 12.3338 91.6865 12.5554 90.5406 13.0368C89.3947 13.5183 88.3701 14.2476 87.5406 15.1721C86.7111 16.0967 86.0975 17.1935 85.7439 18.3835H150.632Z" fill="#F1F2F2"/>
<path opacity="0.3" d="M22.126 35.3469C21.6921 34.5584 20.9779 33.9609 20.1244 33.6724C19.2709 33.3839 18.3401 33.4252 17.5156 33.7883C17.4488 33.3829 17.2895 32.9983 17.05 32.6643C16.8104 32.3302 16.4971 32.0557 16.1342 31.8619C15.7713 31.6681 15.3687 31.5603 14.9574 31.5469C14.5461 31.5334 14.1372 31.6146 13.7624 31.7842C13.5406 31.2135 13.1287 30.7365 12.596 30.4334C12.0632 30.1303 11.4422 30.0197 10.8373 30.1202C10.2325 30.2206 9.68078 30.526 9.275 30.985C8.86922 31.4439 8.63417 32.0284 8.60938 32.64C8.12057 32.8473 7.68356 33.1596 7.32947 33.5548C7.19466 33.2327 6.96559 32.9588 6.67226 32.7689C6.37894 32.579 6.03501 32.4819 5.68551 32.4904C5.33601 32.4989 4.99721 32.6125 4.71348 32.8164C4.42974 33.0204 4.21428 33.3051 4.0953 33.6333C3.72018 33.4335 3.30524 33.3197 2.88057 33.2999C2.45589 33.2802 2.03214 33.355 1.64005 33.5191C1.24796 33.6832 0.897367 33.9323 0.613695 34.2484C0.330023 34.5646 0.120389 34.9398 0 35.3469H22.126Z" fill="#F1F2F2"/>
<path opacity="0.3" d="M155.954 85.927C156.059 85.4628 156.287 85.0355 156.616 84.6905C156.944 84.3456 157.36 84.096 157.819 83.9682C158.278 83.8403 158.764 83.8391 159.223 83.9645C159.683 84.0899 160.1 84.3374 160.431 84.6806C161.261 83.9636 162.289 83.5135 163.38 83.389C163.404 82.7708 163.57 82.1664 163.863 81.6215C164.156 81.0766 164.57 80.6056 165.073 80.2443C165.576 79.8829 166.155 79.6407 166.766 79.5359C167.376 79.4312 168.003 79.4667 168.598 79.6399C169.013 78.7243 169.754 77.9954 170.677 77.5945C171.6 77.1937 172.64 77.1496 173.593 77.4707C174.547 77.7918 175.348 78.4553 175.839 79.3323C176.331 80.2094 176.478 81.2375 176.254 82.2171C176.957 82.3253 177.632 82.57 178.241 82.9375C178.737 82.5921 179.299 82.3535 179.893 82.2368C180.486 82.1201 181.097 82.1279 181.687 82.2597C182.277 82.3916 182.833 82.6445 183.32 83.0025C183.807 83.3604 184.214 83.8156 184.515 84.339C184.87 84.094 185.28 83.9398 185.709 83.89C186.138 83.8401 186.573 83.8962 186.975 84.0531C187.377 84.2101 187.735 84.4632 188.016 84.7903C188.297 85.1174 188.494 85.5084 188.589 85.929L155.954 85.927Z" fill="#F1F2F2"/>
</svg>
