<svg width="41" height="48" viewBox="0 0 41 48" preserveAspectRatio="xMinYMin slice" fill="none" xmlns="http://www.w3.org/2000/svg">
<path d="M24.4843 39.4109C20.6963 37.6418 17.5238 34.7804 15.3747 31.1943C13.2255 27.6083 12.1979 23.4615 12.4239 19.2868C12.6498 15.1122 14.1191 11.1005 16.6427 7.76738C19.1664 4.43425 22.6292 1.93197 26.586 0.582156C22.6519 0.16421 18.6761 0.754052 15.0327 2.29618C11.3894 3.83831 8.19825 6.28201 5.75965 9.39736C3.32104 12.5127 1.71512 16.1973 1.09301 20.1043C0.47089 24.0114 0.853028 28.0125 2.20346 31.7312C3.5539 35.4499 5.82823 38.7638 8.81245 41.3612C11.7967 43.9587 15.3927 45.7542 19.2621 46.5788C23.1315 47.4034 27.147 47.23 30.931 46.0749C34.7149 44.9198 38.1427 42.821 40.8919 39.976C38.2605 40.9944 35.4502 41.4693 32.6303 41.3722C29.8104 41.275 27.0394 40.6078 24.4843 39.4109Z" fill="#FAF4D4"/>
<path d="M7.7782 29.4944C9.40787 29.4944 10.729 28.1732 10.729 26.5436C10.729 24.9139 9.40787 23.5928 7.7782 23.5928C6.14853 23.5928 4.82742 24.9139 4.82742 26.5436C4.82742 28.1732 6.14853 29.4944 7.7782 29.4944Z" fill="#F3EBC0"/>
<path d="M21.7257 46.7695C23.3553 46.7695 24.6765 45.4484 24.6765 43.8187C24.6765 42.189 23.3553 40.8679 21.7257 40.8679C20.096 40.8679 18.7749 42.189 18.7749 43.8187C18.7749 45.4484 20.096 46.7695 21.7257 46.7695Z" fill="#F3EBC0"/>
<path d="M12.3056 35.9196C13.2406 35.9196 13.9985 35.1617 13.9985 34.2267C13.9985 33.2918 13.2406 32.5339 12.3056 32.5339C11.3707 32.5339 10.6128 33.2918 10.6128 34.2267C10.6128 35.1617 11.3707 35.9196 12.3056 35.9196Z" fill="#F3EBC0"/>
<path d="M13.9985 43.2249C14.9334 43.2249 15.6913 42.4669 15.6913 41.532C15.6913 40.5971 14.9334 39.8392 13.9985 39.8392C13.0636 39.8392 12.3057 40.5971 12.3057 41.532C12.3057 42.4669 13.0636 43.2249 13.9985 43.2249Z" fill="#F3EBC0"/>
<path d="M9.9232 22.0527C10.4151 22.0527 10.8139 21.6539 10.8139 21.162C10.8139 20.6701 10.4151 20.2713 9.9232 20.2713C9.43128 20.2713 9.0325 20.6701 9.0325 21.162C9.0325 21.6539 9.43128 22.0527 9.9232 22.0527Z" fill="#F3EBC0"/>
<path d="M11.7046 8.07758C12.1965 8.07758 12.5953 7.67879 12.5953 7.18687C12.5953 6.69495 12.1965 6.29617 11.7046 6.29617C11.2127 6.29617 10.8139 6.69495 10.8139 7.18687C10.8139 7.67879 11.2127 8.07758 11.7046 8.07758Z" fill="#F3EBC0"/>
<path d="M6.08901 35.1174C6.58093 35.1174 6.97971 34.7187 6.97971 34.2267C6.97971 33.7348 6.58093 33.3361 6.08901 33.3361C5.59708 33.3361 5.1983 33.7348 5.1983 34.2267C5.1983 34.7187 5.59708 35.1174 6.08901 35.1174Z" fill="#F3EBC0"/>
<path d="M29.5388 45.7303C30.0307 45.7303 30.4295 45.3315 30.4295 44.8396C30.4295 44.3477 30.0307 43.9489 29.5388 43.9489C29.0469 43.9489 28.6481 44.3477 28.6481 44.8396C28.6481 45.3315 29.0469 45.7303 29.5388 45.7303Z" fill="#F3EBC0"/>
<path d="M10.3581 15.1302C11.293 15.1302 12.051 14.3723 12.051 13.4374C12.051 12.5025 11.293 11.7445 10.3581 11.7445C9.42317 11.7445 8.66525 12.5025 8.66525 13.4374C8.66525 14.3723 9.42317 15.1302 10.3581 15.1302Z" fill="#F3EBC0"/>
<path d="M4.94362 20.2713C6.14752 20.2713 7.12347 19.2953 7.12347 18.0914C7.12347 16.8875 6.14752 15.9116 4.94362 15.9116C3.73972 15.9116 2.76376 16.8875 2.76376 18.0914C2.76376 19.2953 3.73972 20.2713 4.94362 20.2713Z" fill="#F3EBC0"/>
</svg>
