<svg width="343" height="342" viewBox="0 0 343 342" preserveAspectRatio="xMinYMin slice" fill="none" xmlns="http://www.w3.org/2000/svg">
<path d="M12.363 146.636L15.2844 144.364L17.7682 146.072L27.0546 139.2L31.0909 139.341L38.5002 130.959H43.7503L46.7846 125.894L51.6536 123.354L59.0347 112.856L74.4461 138.494L79.4985 139.2L80.684 145.07L92.0732 152.041L92.793 158.531L97.0269 163.47L98.8051 170.469L109.376 170.878L121.908 178.639L122.43 185.694L127.963 189.476L132.197 194.231L143.854 191.31L156.894 201.343H161.834L165.122 207.156L170.923 205.745L183.003 217.273H193.997L198.288 222.212L209.112 226.473L213.77 225.274L233.076 238.905L260.385 262.187L10.1472 263.81L12.363 146.636Z" fill="url(#paint0_linear)"/>
<g style="mix-blend-mode:screen" opacity="0.5">
<g style="mix-blend-mode:screen" opacity="0.5">
<path d="M59.0347 112.856L57.9762 124.962L58.5125 129.196L54.4479 133.076L53.8693 138.255L49.8612 142.248L59.0347 141.429L63.5085 139.2L74.446 138.494L59.0347 112.856Z" fill="#63BACD"/>
</g>
<g style="mix-blend-mode:screen" opacity="0.5">
<path d="M80.684 145.07L72.7948 150.488L70.3251 155.766L63.6214 158.715L61.6597 163.541L76.3936 160.295L80.7969 154.298L88.4461 159.42L92.7929 158.531L92.0732 152.04L80.684 145.07Z" fill="#63BACD"/>
</g>
<g style="mix-blend-mode:screen" opacity="0.5">
<path d="M98.8051 170.469L93.8514 173.051H105.142L108.938 176.437L116.87 178.907L117.519 184.114L122.43 185.694L121.908 178.639L109.376 170.878L98.8051 170.469Z" fill="#63BACD"/>
</g>
<g style="mix-blend-mode:screen" opacity="0.5">
<path d="M132.197 194.231L139.479 195.402L143.36 194.231L146.662 197.053L156.894 201.343L143.854 191.31L132.197 194.231Z" fill="#63BACD"/>
</g>
<g style="mix-blend-mode:screen" opacity="0.5">
<path d="M77.5509 167.237L81.2626 175.464H84.3393L91.3534 183.662L103.745 185.482L112.212 193.808L118.041 195.515L121.386 206.86L112.212 199.931H101.275L99.4684 192.396L87.1195 191.225L81.2626 194.16L78.5953 190.139L82.1235 183.648L76.2243 179.133L77.5509 167.237Z" fill="#63BACD"/>
</g>
</g>
<path d="M3.99398 186.583L13.8731 183.761L19.0526 186.583L24.5566 183.761L31.966 191.409L41.8733 192.693L45.3733 198.041L56.4803 198.93L64.2142 203.572L69.8594 202.457L74.4461 208.807L81.4603 214.225L92.6942 217.273L92.793 221.267H102.785L109.376 215.397L113.37 217.033L122.43 216.568L144.545 224.794L139.253 237.719V254.864H0L3.99398 186.583Z" fill="url(#paint1_linear)"/>
<path d="M87.4583 233.726L100.908 229.14L104.803 231.44L109.729 229.14L117.844 231.44L124.547 224.554H134.074L137.164 221.238L142.273 215.622L150.572 213.746L154.453 210.486L168.058 209.625L172.997 210.797L176.907 207.509L183.794 201.342L188.522 202.57L194.167 199.946L199.995 195.981L203.227 189.871H206.628L216.945 177.637L240.034 176.226L266.383 159.533L288.089 167.887L296.303 160.704L320.337 155.766V250.306L213.925 274.266L138.18 275.479L67.6577 240.908L80.4441 234.079L87.4583 233.726Z" fill="url(#paint2_linear)"/>
<g style="mix-blend-mode:screen" opacity="0.58">
<g style="mix-blend-mode:screen" opacity="0.58">
<path d="M206.628 189.871H210.947L213.77 185.99H219.344L225.568 179.401L240.034 176.226L216.945 177.637L206.628 189.871Z" fill="#63BACD"/>
</g>
<g style="mix-blend-mode:screen" opacity="0.58">
<path d="M134.073 224.554L139.366 223.736L141.483 220.448L148.539 221.267L155.243 216.921H166.886L169.243 214.098H155.003L154.453 210.486L150.572 213.746L142.273 215.622L134.073 224.554Z" fill="#63BACD"/>
</g>
<g style="mix-blend-mode:screen" opacity="0.58">
<path d="M172.997 210.797L179.475 209.865L182.298 206.338H190.638L196.764 206.93L200.292 203.163L199.233 200.341L199.995 195.981L194.167 199.946L188.522 202.57L183.794 201.343L172.997 210.797Z" fill="#63BACD"/>
</g>
</g>
<path d="M97.1397 254.906L108.148 249.487H121.386L131.011 245.565L139.253 248.316L162.06 236.675L169.243 239.144H190.681L200.644 235.377L208.632 237.973L229.294 247.145L251.832 254.906L243.915 281.236L72.2726 282.647L97.1397 254.906Z" fill="url(#paint3_linear)"/>
<path d="M268.824 206.93L266.002 204.814L264.421 206.93H261.599L260.724 209.23H258.607L255.05 213.463H252.623L251.395 216.285H249.109V218.938H247.697L245.961 221.055H243.844L241.911 224.23H240.33L238.044 226.882H235.687L234.276 228.477H232.54L230.959 231.652H229.195L226.909 235.532H223.183L220.741 238.185C220.741 238.185 218.667 237.663 218.385 238.185C218.102 238.707 215.985 242.065 215.985 242.065L211.046 242.418C211.046 242.418 209.437 245.071 208.294 244.887C207.151 244.704 205.217 244.365 205.217 244.365L199.925 246.835H198.203L196.933 249.135L193.235 249.318L191.655 252.324C189.235 253.427 186.879 254.666 184.598 256.035C183.892 256.74 180.872 260.099 180.872 260.099H176.13C175.241 260.819 174.297 261.47 173.308 262.046C171.815 262.504 170.277 262.802 168.721 262.935H164.84L162.554 265.588H147.029L144.207 264.176L140.862 264.529L138.928 261.891L136.459 261.538L134.567 259.746H132.662L130.023 257.911L126.325 258.617L122.275 256.331L119.452 257.037L116.277 255.202H114.64L112.001 253.692L108.67 255.188L104.944 251.209L100.005 251.914L95.9684 247.498L93.1458 248.387L91.5651 243.984L86.0046 243.632L80.2747 238.876L76.0408 239.06L73.8674 234.474L71.6234 235.179L70.565 234.121L68.0952 235.179L64.1576 231.299L62.45 232.005L60.1637 227.249L58.583 227.786L56.8189 226.022L54.462 226.205L51.5265 221.972H47.0668L45.1615 218.755L43.7502 218.233L40.8571 218.769V215.538H37.0466L33.7018 209.893L20.2662 204.785L12.3629 196.531V323.807H268.824V206.93Z" fill="#0B5D77"/>
<path d="M10.881 212.222L12.8992 211.686V208.595L14.0565 205.773L15.1291 208.99V211.587L16.117 214.056L17.4154 212.476L18.4738 208.37L19.2218 211.714L19.5888 215.608H22.0868L22.9477 213.943V213.181L23.7521 210.458L24.119 213.675L23.5686 214.423L24.119 215.594L25.1775 214.846V213.732L25.615 211.869L26.109 214.155V215.086L26.857 216.257L27.6614 217.499V218.642L28.4376 218.36V217.189L29.0586 216.638L28.8328 215.763L29.2844 214.592L29.8772 216.003L29.5384 216.413L29.8066 217.584V218.162L30.2159 218.995L30.5405 218.332L30.4699 217.866L30.8368 217.033L31.0062 218.106L30.8368 218.501L31.0909 219.39L31.5425 218.91L31.8247 217.654L31.9659 218.882L32.4034 219.841L32.5869 220.505L32.9538 219.743L33.4054 218.698L33.5889 220.505V221.337L33.8288 221.789L34.6473 222.932L34.8026 223.552L35.3248 223.214L35.48 222.014L35.974 221.083L36.1292 222.593V223.708C36.1292 223.708 36.5667 224.456 36.5949 224.54C36.6232 224.625 36.6937 225.528 36.6937 225.528L37.2159 224.822V224.202L37.3712 223.214L37.5829 224.202L37.8369 224.879L37.6816 225.895L38.3591 227.221L38.6696 226.445L38.5143 225.514L38.853 223.806L39.2905 225.514V226.135L39.5728 227.405L39.7563 228.604C39.9829 228.244 40.1902 227.872 40.3772 227.489C40.3772 227.391 40.222 226.685 40.222 226.685L40.7724 225.486L40.9841 227.532V228.463C40.9841 228.463 41.2664 229.422 41.2946 229.606C41.3228 229.789 42.3813 229.606 42.3813 229.606V228.279L42.7482 227.292L42.9599 228.703V229.747L43.3974 230.989L43.9478 230.34V228.83L44.3853 230.989V232.132L44.6958 233.091L45.1898 231.976L45.6273 230.495V231.821L46.0224 232.781V233.402L46.9539 233.091V231.948L47.2079 230.622L47.6737 232.033V233.176L48.1676 235.151L48.7604 234.559L48.9438 234.079L48.6333 233.402L49.2966 232.061L49.6636 233.67C49.6636 233.67 49.4378 234.262 49.4378 234.305C49.4378 234.347 49.7342 235.208 49.7342 235.208L50.2281 236.252L50.1011 236.548L50.4116 236.097V235.448L50.5809 234.926L50.7926 235.532V236.054L51.0043 236.816H52.0063L52.5285 236.083L53.1072 234.545L53.6293 236.393L53.2342 237.451L53.841 239.328L54.462 238.693C54.5756 238.231 54.6324 237.757 54.6314 237.282L55.5064 234.234V239.088L55.8592 240.33L56.5931 239.54L56.8895 238.481L57.327 236.308L57.7362 238.665L57.4116 240.076L57.7362 241.953H59.1475V240.922L59.2887 239.046C59.4499 238.565 59.6384 238.094 59.8532 237.635V243.11C59.8532 243.11 60.7 244.196 60.7 244.083C60.7 243.97 61.2645 242.672 61.2645 242.672L61.7867 240.88L62.1395 243.293V245L62.5629 246.143C62.5629 246.143 63.3109 244.972 63.3391 244.888C63.3673 244.803 63.0427 243.857 63.1274 243.716C63.2121 243.575 63.8895 241.459 63.8895 241.459L64.4822 244.069L63.8895 245.212L64.4117 246.891L65.2585 248.091C65.7038 247.69 66.1278 247.266 66.5286 246.821C66.4079 246.36 66.351 245.885 66.3593 245.41C66.444 245.085 66.825 243.208 66.825 243.208L67.2061 246.327C67.0652 246.568 66.983 246.838 66.9661 247.117C66.9661 247.441 67.2061 249.502 67.2061 249.502C67.2061 249.502 68.2081 248.937 68.2081 248.768C68.2081 248.599 68.2928 246.976 68.2928 246.863C68.2928 246.75 68.6738 245.452 68.6738 245.452L69.0549 247.159V248.302L69.4641 249.713V251.124L70.2262 252.832L71.2565 251.421V249.008L72.6678 245.452C72.7525 245.24 72.9924 248.599 73.0206 248.683C73.0488 248.768 72.4984 250.362 72.4984 250.447C72.4984 250.532 72.9924 252.507 72.9924 252.507L72.9077 253.65L73.9662 254.652L75.3775 253.241L75.067 250.997L75.7303 247.244L76.436 251.703L76.0831 253.777C76.2803 254.736 76.4123 255.707 76.4783 256.684C76.4094 257.772 76.4519 258.864 76.6053 259.943L77.7485 262.766L78.3694 261.086L78.1436 259.365L79.0187 256.317V254.384L79.682 257.121V258.758L80.0771 261.806V262.78L81.0933 262.116L81.1779 259.83L82.1517 257.361V256.077L82.8574 260.663C82.8131 261.292 82.8131 261.924 82.8574 262.554C82.9421 262.822 83.2526 264.275 83.2526 264.275L83.8312 263.4L84.3534 260.804L85.1014 259.224V261.256L84.8332 263.598L85.1014 265.235L86.2445 265.856L87.1195 264.572L86.8937 262.681L87.684 260.79L88.2627 264.755L88.9683 267.097L91.3534 268.283C91.3534 268.283 92.4966 265.461 92.4966 265.291C92.4966 265.122 92.7083 261.947 92.7083 261.947L93.6538 260.804V263.979L93.1316 265.39L93.6538 267.464L93.2163 268.607L94.1478 271.034L93.3575 271.74L94.4583 273.941L95.7426 271.599L95.4744 270.272C95.4744 270.272 96.4905 268.777 96.3494 268.551C96.202 268.152 96.0887 267.741 96.0107 267.323C96.0107 267.323 96.9986 262.328 97.0551 262.554L97.9865 266.97C97.9376 267.2 97.8618 267.422 97.7607 267.634C97.6055 267.944 98.6357 269.792 98.6357 269.792L98.1982 270.724L98.6357 272.488C98.6357 272.488 99.92 269.934 99.8636 269.792C99.6482 269.112 99.4738 268.419 99.3414 267.718L100.174 264.981L100.964 267.986L101.487 269.256V271.331L102.898 272.431L104.62 269.087V266.265L104.972 264.727C104.972 264.727 105.495 266.321 105.551 266.533C105.521 266.88 105.445 267.222 105.325 267.549L106.384 272.177L107.442 270.286C107.35 269.821 107.293 269.349 107.273 268.875C107.273 268.607 108.021 265.926 108.021 265.926L108.952 269.143L108.515 269.976L109.39 272.798L112.212 273.885L113.497 270.978V269.877L113.934 268.24L114.809 270.71C114.809 270.71 114.414 271.105 114.456 271.246C114.499 271.387 115.12 273.899 115.12 273.899L116.7 273.377V271.218C116.7 271.218 117.279 269.637 117.364 269.891L118.648 273.899V274.83L120.539 275.14C120.78 274.253 120.973 273.353 121.118 272.445C121.118 272.177 121.823 271.119 121.823 271.034C121.823 270.95 121.245 269.101 121.245 269.101L121.823 265.616L122.614 269.059V274.886C122.614 274.886 124.025 272.77 124.025 272.643C124.025 272.516 124.293 270.357 124.293 270.357L125.041 273.447L126.227 276.185L126.848 274.153L126.537 273.179C126.674 272.539 126.848 271.908 127.059 271.288L128.118 274.336L128.739 276.805H130.376L130.672 275.789L130.418 273.461L131.251 271.387L131.872 273.419V274.435L132.182 275.408V277.172L133.763 278.583C133.608 278.189 133.503 277.777 133.453 277.356C133.453 277.088 134.031 275.507 134.031 275.366C134.031 275.225 134.342 272.911 134.342 272.911L134.963 275.62V277.342L135.668 278.88L136.106 277.779V275.888L137.334 272.911L137.729 276.368L137.602 277.299L138.392 279.247L139.803 280.968L140.947 279.952L140.551 279.331C140.551 279.331 141.836 274.971 141.963 275.098C142.09 275.225 142.668 278.146 142.711 278.456C142.652 279.154 142.548 279.847 142.4 280.531L142.979 281.716L145.801 283.212V281.095L146.775 276.777L148.186 279.501L147.481 282.407C147.481 282.407 149.245 286.909 149.245 286.64C149.245 286.372 150.924 280.291 150.924 280.291V276.947L151.983 273.856L153.126 278.527L152.251 279.769L153.14 283.48V285.512L154.467 288.418L153.846 289.914L155.342 294.415L156.485 291.382C156.485 291.382 155.963 289.477 155.963 289.209C155.963 288.94 157.289 286.739 157.021 286.471C156.753 286.203 156.231 285.596 156.499 285.243C156.767 284.891 158.447 278.104 158.447 278.104L159.773 283.578L158.941 284.99L159.773 287.812L160.775 289.66L161.876 286.161L162.427 283.339L163.4 286.245V288.799H164.896L166.039 286.725L165.729 285.399C165.729 285.229 166.308 283.367 166.392 283.988C166.477 284.608 167.013 287.035 167.013 287.035L166.745 287.826L167.013 289.9L168.425 292.285C168.613 291.771 168.759 291.242 168.862 290.704C168.862 290.535 168.425 289.688 168.425 289.688C168.425 289.688 169.046 285.766 169.088 286.034L169.624 289.251L169.455 290.267C169.455 290.267 170.076 291.678 170.118 291.861C170.623 292.155 171.151 292.406 171.699 292.609L172.32 290.14L172.63 287.896L173.025 289.18V290.718L173.505 292.708L174.126 294.246L174.437 293.667L174.211 292.524L175.312 289.18L177.344 294.824L176.723 295.304L177.344 296.631L178.318 295.488C178.258 295.012 178.168 294.541 178.05 294.077C177.979 294.077 178.318 290.704 178.318 290.704L179.108 294.274L178.84 295.601L179.376 297.237L180.618 297.59L180.519 296.49L180.999 293.936L181.55 296.01V298.126L183.469 299.721L183.243 298.536L182.89 297.393L183.469 292.68L184.711 299.114V300.44L185.812 297.929L186.165 295.502L187.138 300.44L187.971 298.86L188.409 296.165L188.677 298.987L189.566 302.388L191.288 301.16C191.323 299.993 191.427 298.83 191.598 297.675C191.725 297.675 192.431 301.513 192.431 301.513L193.659 316.879H3.9939L10.881 212.222Z" fill="#0E4764"/>
<path d="M332.714 217.781L329.722 217.203V213.901L328 210.853L326.42 214.296V217.118L325.008 219.771L323.089 218.078L321.522 213.689L320.422 217.259L319.871 221.492H316.159L314.875 219.7V218.825L313.676 215.919L313.125 219.362L313.958 220.152L313.125 221.408L311.559 220.617V219.432L310.909 217.443L310.176 219.884V220.871L309.075 222.127L307.875 223.454V224.681L306.732 224.385V223.129L305.815 222.537L306.153 221.591L305.49 220.349L304.615 221.873L305.123 222.311L304.728 223.552L304.827 224.173L304.234 225.076L303.754 224.357L303.867 223.863L303.317 222.96L303.063 224.103L303.317 224.512L302.95 225.457L302.286 224.949L301.877 223.538L301.665 224.851L301.016 225.881L300.734 226.6L300.184 225.782L299.52 224.667L299.238 226.586V227.489L298.899 227.969L297.671 229.183L297.446 229.846L296.669 229.479L296.444 228.195L295.71 227.207L295.484 228.83V230.114C295.484 230.114 294.835 230.904 294.792 231.003C294.75 231.102 294.651 232.061 294.651 232.061L293.875 231.299V230.636L293.649 229.578L293.325 230.636L292.958 231.37L293.183 232.456L292.167 233.867L291.702 233.035L291.927 232.047L291.419 230.227L290.77 232.047V232.71L290.361 234.121L290.079 235.405C289.749 235.029 289.443 234.633 289.161 234.22C289.161 234.121 289.387 233.359 289.387 233.359L288.554 232.075L288.23 234.262V235.25C288.23 235.25 287.821 236.28 287.764 236.478C287.708 236.675 286.155 236.478 286.155 236.478V235.067L285.605 234.008L285.28 235.419V236.534L284.631 237.875L283.798 237.183V235.56L283.149 237.875V239.102L282.683 240.132L281.95 238.947L281.3 237.353V238.764L280.708 239.794V240.457L279.296 240.132V238.905L278.929 237.494L278.238 239.018V240.245L277.504 242.362L276.629 241.727L276.347 241.219L276.812 240.499L275.824 239.088L275.274 240.81C275.274 240.81 275.613 241.445 275.613 241.501C275.613 241.557 275.161 242.461 275.161 242.461L274.413 243.575L274.597 243.886L274.131 243.406V242.714L273.891 242.15L273.581 242.799L273.679 243.364L273.369 244.182H271.887L271.097 243.406L270.25 241.755L269.46 243.73L270.052 244.859L269.149 246.863L268.232 246.186C268.034 246.045 267.964 244.676 267.964 244.676L266.651 241.416V246.609L266.129 247.935L265.042 247.089L264.591 245.96L263.913 243.519L263.306 246.03C263.306 246.03 263.786 247.442 263.786 247.597C263.786 247.752 263.306 249.615 263.306 249.615H261.218V248.514L261.006 246.496C260.76 246.008 260.482 245.537 260.173 245.085V250.927C260.173 250.927 258.903 252.084 258.903 251.971C258.65 251.486 258.373 251.015 258.07 250.56L257.28 248.641L256.758 251.223V253.043L256.123 254.257C256.123 254.257 255.008 253.001 254.965 252.846C254.923 252.691 255.403 251.745 255.276 251.59C255.149 251.435 254.147 249.163 254.147 249.163L253.272 251.985L254.147 253.213L253.357 255.005L252.086 256.289C252.086 256.289 250.209 255.033 250.209 254.878C250.209 254.722 250.605 253.777 250.478 253.467C250.351 253.156 249.786 251.11 249.786 251.11L249.221 254.44C249.422 254.681 249.545 254.976 249.574 255.287C249.574 255.64 249.221 257.827 249.221 257.827C249.221 257.827 247.74 257.234 247.74 257.037C247.74 256.839 247.613 255.118 247.613 254.991C247.613 254.864 247.048 253.424 247.048 253.424L246.484 255.245V256.472L245.877 258.038L245.961 259.605L244.832 261.425L243.308 259.887V257.347L241.177 253.537C240.937 254.679 240.763 255.833 240.655 256.994C240.655 257.093 241.445 258.786 241.445 258.885C241.445 258.984 240.697 261.086 240.697 261.086L240.824 262.314L239.258 263.386L237.098 261.877L237.55 259.478L236.562 255.47L235.518 260.226L236.04 262.441C235.746 263.46 235.548 264.504 235.447 265.559C235.546 266.725 235.48 267.898 235.25 269.045L233.542 272.022L232.625 270.23L232.949 268.396L231.637 265.136V263.062L230.649 265.983V267.732L230.183 271.034V272.078L228.673 271.373L228.546 268.918L227.135 266.279V264.868L226.09 269.778C226.157 270.454 226.157 271.135 226.09 271.81C225.963 272.093 225.498 273.645 225.498 273.645L224.651 272.699L223.86 269.877L222.745 268.184V270.357L223.141 272.854L222.745 274.604L221.038 275.267L219.725 273.856L220.05 271.824L218.879 269.793L218.032 274.026L216.987 276.523L213.459 277.793C213.459 277.793 211.751 274.731 211.751 274.59C211.751 274.449 211.441 271.006 211.441 271.006L210.03 269.778V273.179L210.82 274.731L210.03 276.947L210.679 278.174L208.872 280.643C208.872 280.643 205.711 278.414 205.909 278.174C206.121 277.756 206.287 277.316 206.403 276.862C206.403 276.862 204.991 271.528 204.864 271.754L203.453 276.467C203.525 276.717 203.635 276.955 203.778 277.172C204.003 277.497 202.465 279.486 202.465 279.486L203.114 280.474L202.465 282.365C201.801 281.46 201.188 280.518 200.63 279.543C200.952 278.826 201.216 278.086 201.421 277.327L200.179 274.407L199.007 277.61L198.231 279.021V281.236L196.185 282.421L193.63 278.837V275.86L193.108 274.209C193.108 274.209 192.318 275.902 192.261 276.142C192.305 276.521 192.415 276.889 192.586 277.229L191.019 282.182L189.453 280.15C189.598 279.643 189.688 279.123 189.721 278.597C189.721 278.315 188.606 275.437 188.606 275.437L187.195 278.88L187.844 279.769L186.532 282.859L182.411 284.016L180.646 280.827V279.642L179.997 277.892L178.685 280.531C178.685 280.531 179.277 280.954 179.207 281.095C179.136 281.236 178.219 283.917 178.219 283.917L175.862 283.353V281.039C175.862 281.039 175.015 279.345 174.874 279.628L172.983 283.861V284.848L170.16 285.173C169.812 284.253 169.529 283.31 169.314 282.351C169.314 282.069 168.269 280.94 168.269 280.799C168.269 280.658 169.116 278.724 169.116 278.724L168.269 274.999L167.098 278.682V284.905C167.098 284.905 164.939 282.647 164.939 282.506C164.939 282.365 164.543 280.051 164.543 280.051L163.429 283.353L161.664 286.274L160.747 284.101L161.199 283.056C160.988 282.36 160.724 281.68 160.408 281.024L158.842 284.284L157.924 286.923H155.497L155.06 285.836L155.441 283.339L154.199 281.123L153.281 283.296V284.383L152.83 285.427V287.318L150.473 288.828C150.696 288.414 150.849 287.965 150.924 287.501C150.924 287.219 150.078 285.526 150.078 285.385C150.078 285.244 149.626 282.76 149.626 282.76L148.709 285.667V287.501L147.664 289.152L147.015 287.967V285.935L145.18 282.746L144.588 286.443L144.785 287.431L143.614 289.505L141.582 291.339L139.874 290.253L140.467 289.59C139.888 288.069 139.218 286.585 138.463 285.145C138.336 285.328 137.418 288.404 137.348 288.729C137.433 289.479 137.584 290.22 137.799 290.944L136.953 292.214L132.719 293.823V291.565L131.307 286.951L129.077 289.773L130.122 292.891C130.122 292.891 127.511 297.703 127.511 297.421C127.511 297.139 125.027 290.634 125.027 290.634V287.05L123.418 283.734L121.71 288.729L123.023 290.055L121.71 294.02V296.193L119.749 299.255L120.666 300.864L118.436 305.675L116.729 302.43C117.035 301.674 117.299 300.901 117.519 300.116C117.519 299.834 115.557 297.477 115.952 297.195C116.348 296.913 117.124 296.25 116.743 295.869C116.362 295.488 113.92 288.235 113.92 288.235L111.958 294.077L113.2 295.488L111.958 298.564L110.547 300.539L108.924 296.786L108.106 293.738L106.694 296.856V299.594H104.464L102.757 297.379L103.208 295.967C103.208 295.784 102.362 293.794 102.22 294.415C102.079 295.036 101.303 297.675 101.303 297.675L101.698 298.521L101.303 300.737L99.2144 303.277C98.9386 302.737 98.7209 302.169 98.5652 301.583C98.5652 301.4 99.2144 300.497 99.2144 300.497C99.2144 300.497 98.297 296.264 98.2265 296.588L97.3797 300.06L97.6478 301.146C97.6478 301.146 96.7305 302.698 96.6599 302.839C95.8934 303.16 95.106 303.429 94.303 303.644L93.3857 301.005L92.9341 298.606L92.3413 300.017V301.668L91.6216 303.785L90.7042 305.436L90.2526 304.829L90.5772 303.601L88.9119 299.961L85.9058 306.042L86.8232 306.564L85.9058 307.975L84.4945 306.748C84.5797 306.211 84.7119 305.682 84.8897 305.167C85.0026 305.167 84.4945 301.555 84.4945 301.555L83.2667 305.393L83.6618 306.804L82.8715 308.554L81.0227 308.935L81.178 307.75L80.4441 305.012L79.6255 307.228V309.485L76.8029 311.179L77.1275 309.909L77.6497 308.681L76.8029 303.629L74.94 310.544V311.955L73.3029 309.274L72.7807 306.677L71.3694 311.955L70.1275 310.261L69.4783 307.439L69.0831 310.501L67.7424 314.071L65.1879 312.745C65.1371 311.493 64.9861 310.247 64.7363 309.02C64.2394 310.362 63.8246 311.733 63.4944 313.126L61.6597 316.752H342.946L332.714 217.781Z" fill="#083753"/>
<path d="M314.353 77.3396C282.961 78.8121 251.823 83.6997 221.489 91.9157L216.197 105.786C209.706 108.553 203.382 111.695 197.257 115.198C190.441 119.431 190.667 120.602 190.667 120.602V127.418C185.116 129.327 180.113 132.557 176.088 136.829C169.497 143.885 170.908 143.645 170.908 143.645L181.253 166.222L217.044 173.037C217.81 175.288 218.945 177.395 220.403 179.274C222.52 181.743 225.695 184.918 225.695 184.918L238.75 187.035L252.51 215.608L245.905 249.713L232.498 276.523L228.024 316.738H314.339L314.353 77.3396Z" fill="#073255"/>
<path d="M170.923 143.659L181.267 166.236L217.058 173.051L225.568 166.476V159.886L236.633 156.133L239.215 151.66L256.617 145.55V141.782L203.933 145.31L198.993 142.953L170.923 143.659Z" fill="#0E4266"/>
<path d="M190.681 127.432L211.808 125.795L215.463 121.209L230.282 118.613L231.213 116.27L190.681 120.616V127.432Z" fill="#0E4266"/>
<path d="M216.197 105.8L226.274 103.218L228.984 99.5354L235.8 97.7998L237.099 94.6249L221.49 91.9299L216.197 105.8Z" fill="#0E4266"/>
<path d="M238.764 187.049L252.863 188.587L255.53 193.991H259.369L260.385 201.286L252.524 215.622L238.764 187.049Z" fill="#0E4266"/>
<path d="M232.512 276.537L240.02 274.661L246.949 266.42L255.53 263.132L265.564 249.488H253.794L247.599 241.007L245.919 249.727L232.512 276.537Z" fill="#0E4266"/>
<path d="M241.219 88.0494H186.997V91.9299H241.219V88.0494Z" fill="#02284C"/>
<path d="M242.574 62.2413L201.576 56.2021V88.0494H242.574V62.2413Z" fill="#02284C"/>
<path d="M194.206 53.6979L193.795 56.4899L249.953 64.7511L250.364 61.9591L194.206 53.6979Z" fill="#02284C"/>
<path d="M195.409 89.9826H192.586V119.093H195.409V89.9826Z" fill="#02284C"/>
<path d="M206.128 89.1622L192.84 108.264L195.157 109.876L208.445 90.7736L206.128 89.1622Z" fill="#02284C"/>
<path d="M283.403 82.2782C283.163 81.2341 284.194 80.3592 284.575 79.3574C285.125 77.9463 284.349 76.3518 284.081 74.8279C283.779 72.4782 284.407 70.1036 285.831 68.2101C287.249 66.3427 288.905 64.6682 290.756 63.2291C289.134 64.0946 287.421 64.7761 285.647 65.261C284.999 63.2567 284.999 61.099 285.647 59.0947C286.056 58.1634 286.734 57.3874 287.2 56.4984C288.921 53.2106 287.778 48.4836 290.671 46.1554L286.268 47.9333C287.209 43.5308 288.31 39.1566 289.571 34.8106L287.284 35.4738C287.637 28.4185 290.375 29.2651 291.885 17.1301C294.821 27.6283 297.333 30.3658 298.786 35.1351C297.576 34.8982 296.4 34.5094 295.286 33.978C295.2 38.2034 296.14 42.3866 298.024 46.1695C299.125 48.3566 300.565 50.5861 300.381 53.0272L297.559 53.0978L300.381 59.3205C301.553 61.8604 302.71 64.9647 301.228 67.3211C301.021 67.5749 300.893 67.8841 300.861 68.2101C300.861 68.6898 301.369 69.0003 301.764 69.2684C304.911 71.3567 305.659 75.5758 306.139 79.3291L283.403 82.2782Z" fill="#073255"/>
<path d="M295.371 80.7684C295.044 79.2953 295.044 77.7685 295.371 76.2954C296.156 72.542 297.358 68.8881 298.956 65.4021C299.831 63.3231 300.725 61.2489 301.637 59.1794C302.106 58.3085 302.376 57.3447 302.428 56.3573C300.519 57.4596 298.351 58.0343 296.147 58.0223C296.246 55.0873 299.577 53.1542 300.028 50.2474C300.198 49.2033 302.329 41.7811 304.502 40.1161C302.759 40.8375 300.909 41.2665 299.026 41.386C301.601 36.053 303.28 30.3322 303.994 24.4535C303.15 25.0052 302.178 25.3308 301.171 25.3989C300.367 22.986 302.301 20.6436 303.401 18.3436C305.561 13.8283 304.516 4.48713 306.831 0C308.962 3.92271 309.512 9.962 310.274 14.3786C310.777 16.0077 311.399 17.5971 312.137 19.1338C312.942 21.0528 314.734 22.6332 314.805 24.778C313.481 23.7135 311.817 23.1624 310.119 23.2259C310.834 23.8793 311.435 24.6471 311.897 25.4977C312.386 26.4634 312.765 27.481 313.026 28.5314C314.17 32.6517 314.762 36.9977 317.26 40.5676C319.024 43.0934 317.43 45.0689 318.375 45.972C317.618 45.3016 316.702 44.8346 315.715 44.6149C314.727 44.3953 313.7 44.4301 312.73 44.7161C316.407 49.8962 318.496 56.0349 318.742 62.3824C317.212 62.0172 315.643 61.8418 314.071 61.8603C318.068 66.7692 320.419 72.812 320.789 79.1316C314.889 78.9199 308.553 80.0488 302.653 80.0347C299.958 80.0488 297.784 79.4561 295.371 80.7684Z" fill="#073255"/>
<path d="M281.794 87.4709C281.999 86.5412 281.999 85.5784 281.794 84.6488C281.298 82.2619 280.536 79.938 279.522 77.7205C278.967 76.3941 278.398 75.0772 277.814 73.7696C277.515 73.2077 277.346 72.5855 277.32 71.9493C278.534 72.65 279.913 73.0152 281.314 73.0076C281.314 71.145 279.127 69.9174 278.845 68.069C278.746 67.4058 277.433 62.7211 276.022 61.6205C277.132 62.0783 278.31 62.35 279.508 62.4248C277.866 59.0207 276.797 55.3686 276.347 51.6162C276.886 51.971 277.509 52.18 278.153 52.2229C278.675 50.6848 277.433 49.1891 276.742 47.7358C275.331 44.9137 276.036 38.9167 274.554 36.0946C273.143 38.5922 272.847 42.4302 272.367 45.2382C272.048 46.2775 271.651 47.2916 271.181 48.272C270.673 49.4996 269.53 50.5014 269.488 51.8278C270.33 51.1533 271.387 50.8029 272.466 50.8401C272.015 51.2457 271.633 51.7224 271.337 52.2511C271.025 52.8665 270.784 53.5149 270.617 54.1843C269.897 56.8088 269.516 59.6168 267.949 61.8321C266.82 63.4407 267.837 64.6542 267.244 65.2751C267.724 64.8487 268.305 64.5512 268.932 64.4105C269.559 64.2699 270.212 64.2906 270.829 64.4708C268.48 67.7804 267.151 71.7041 267.004 75.7592C267.979 75.5287 268.98 75.4197 269.982 75.4346C267.408 78.5629 265.891 82.4257 265.649 86.469C269.403 86.3279 273.425 87.0475 277.193 87.0475C278.873 87.0193 280.298 86.6383 281.794 87.4709Z" fill="#073255"/>
<path d="M288.399 88.6562C288.559 87.9359 288.559 87.1893 288.399 86.4691C288.016 84.6361 287.429 82.8517 286.649 81.1494C286.226 80.1334 285.788 79.1222 285.337 78.1156C285.105 77.68 284.975 77.1976 284.956 76.7046C285.886 77.2445 286.943 77.527 288.018 77.523C288.018 76.1119 286.353 75.1524 286.127 73.7273C286.042 73.2193 284.998 69.6211 283.939 68.7886C284.788 69.1406 285.69 69.3503 286.607 69.4095C285.345 66.7967 284.525 63.9931 284.179 61.1125C284.6 61.3909 285.087 61.5517 285.591 61.5781C285.986 60.4069 285.04 59.264 284.504 58.1351C283.446 55.9339 283.968 51.3762 282.825 49.2173C281.92 51.4733 281.354 53.8508 281.145 56.2726C280.902 57.07 280.6 57.8482 280.242 58.6008C279.847 59.5321 278.972 60.3082 278.943 61.3241C279.59 60.8042 280.401 60.5338 281.23 60.5622C280.883 60.8831 280.592 61.2599 280.369 61.6769C280.135 62.1261 279.951 62.5992 279.818 63.0879C279.473 65.1463 278.782 67.1311 277.772 68.9579C276.911 70.1855 277.687 71.1592 277.236 71.5966C277.605 71.2705 278.052 71.0437 278.533 70.9375C279.015 70.8314 279.515 70.8494 279.988 70.9898C278.193 73.5176 277.173 76.5134 277.052 79.6113C277.796 79.4339 278.56 79.3486 279.325 79.3574C277.352 81.7582 276.191 84.7221 276.008 87.8237C278.831 87.7108 281.978 88.2611 284.857 88.2611C286.052 88.0665 287.277 88.2031 288.399 88.6562V88.6562Z" fill="#073255"/>
<path d="M45.345 319.631C45.5567 318.671 44.6252 317.881 44.2724 316.964C43.7644 315.652 44.4841 314.226 44.724 312.829C45.0011 310.685 44.4288 308.518 43.1293 306.79C41.837 305.087 40.3283 303.56 38.6413 302.247C40.1198 303.038 41.6818 303.663 43.2986 304.109C43.8939 302.275 43.8939 300.299 43.2986 298.465C42.9317 297.618 42.3107 296.913 41.8873 296.094C40.3208 293.089 41.3651 288.785 38.726 286.655L42.7341 288.277C41.7932 284.26 40.7865 280.272 39.7139 276.312L41.8026 276.918C41.478 270.442 38.98 271.274 37.5687 260.141C34.8873 269.722 32.5869 272.205 31.2743 276.566C32.3778 276.348 33.4494 275.993 34.4639 275.507C34.5417 279.361 33.6846 283.176 31.9659 286.626C30.9639 288.63 29.6514 290.648 29.8066 292.877H32.3328L29.7219 298.521C28.6493 300.836 27.605 303.644 28.9457 305.817C29.1379 306.049 29.2559 306.334 29.2844 306.635C29.2844 307.072 28.8187 307.355 28.4517 307.594C25.6291 309.499 24.8953 313.352 24.4578 316.766L45.345 319.631Z" fill="#02284C"/>
<path d="M31.6836 320.308C32.0629 318.598 32.0629 316.825 31.6836 315.115C30.7756 310.74 29.3791 306.48 27.5203 302.416C26.5042 299.998 25.4645 297.59 24.4013 295.191C23.8522 294.168 23.5387 293.035 23.484 291.875C25.7014 293.156 28.2198 293.823 30.7804 293.809C30.6675 290.394 26.8005 288.164 26.2784 284.792C26.0949 283.578 23.5969 275.027 21.0848 273.024C23.1146 273.84 25.265 274.317 27.4497 274.435C24.449 268.213 22.4985 261.538 21.6775 254.68C22.6607 255.324 23.7933 255.703 24.9659 255.781C25.9114 252.959 23.6533 250.25 22.3691 247.597C19.857 242.348 21.0707 231.511 18.3892 226.346C15.9053 230.904 15.2843 237.931 14.3952 243.039C13.8137 244.934 13.092 246.783 12.2359 248.57C11.2904 250.8 9.22987 252.634 9.14519 255.061C10.686 253.826 12.6191 253.185 14.5928 253.255C13.7646 254.014 13.0683 254.906 12.5323 255.894C11.9639 257.017 11.5236 258.2 11.2198 259.421C9.89318 264.205 9.20164 269.299 6.35081 273.391C4.29032 276.326 6.15323 278.626 5.05242 279.67C5.93565 278.9 6.99958 278.367 8.14477 278.121C9.28996 277.874 10.479 277.921 11.6008 278.259C7.32886 284.274 4.9014 291.403 4.61492 298.775C6.3948 298.355 8.21976 298.156 10.0484 298.183C5.35136 303.896 2.58466 310.95 2.14514 318.333C8.98994 318.079 16.3569 319.391 23.2017 319.391C26.3489 319.475 28.9457 318.784 31.6836 320.308Z" fill="#02284C"/>
<path d="M323.879 318.897C322.627 309.397 320.161 300.098 316.541 291.226L321.819 293.301C319.25 287.487 316.461 281.777 313.45 276.17L316.851 277.398C316.639 274.308 314.565 271.655 313.817 268.635C313.295 266.505 313.436 264.261 313.012 262.116C312.589 259.972 311.319 257.742 309.202 257.192C309.527 256.772 309.999 256.492 310.524 256.408C311.048 256.324 311.585 256.443 312.024 256.74C313.534 253.438 310.387 249.996 309.442 246.482C308.581 243.237 309.597 239.427 307.748 236.605C305.631 238.933 306.817 242.15 306.012 245.198C305.597 246.452 305.058 247.662 304.403 248.81C303.009 251.65 302.193 254.739 302.004 257.897L304.149 257.432C302.738 259.534 302.653 262.215 302.23 264.713C301.582 268.465 300.08 272.018 297.841 275.098C299.511 275.59 301.266 275.724 302.992 275.493C300.311 277.398 300.169 281.137 299.788 284.481C299.747 285.699 299.429 286.891 298.857 287.967C297.333 290.45 293.423 291.367 293.099 294.26C295.485 294.886 297.986 294.934 300.395 294.401C298.84 299.216 296.682 303.814 293.974 308.088C292.312 310.813 290.295 313.304 287.976 315.496L294.313 315.764C293.992 317.645 294.385 319.577 295.413 321.183L323.879 318.897Z" fill="#02284C"/>
<path d="M225.173 338.327C224.496 333.197 223.163 328.175 221.207 323.384L224.03 324.499C222.647 321.357 221.137 318.271 219.5 315.242L221.334 315.906C221.221 314.226 220.092 312.801 219.697 311.179C219.415 310.036 219.485 308.822 219.26 307.651C219.193 307.06 218.966 306.499 218.603 306.029C218.239 305.559 217.754 305.197 217.199 304.984C217.375 304.762 217.628 304.614 217.907 304.57C218.187 304.525 218.473 304.588 218.709 304.744C219.528 302.952 217.82 301.104 217.298 299.199C216.776 297.294 216.987 295.826 216.381 293.893C215.858 295.77 215.59 299.425 215.153 301.061C214.969 301.753 213.374 303.7 213.276 305.393L214.433 305.139C213.815 306.365 213.459 307.706 213.389 309.076C213.043 311.115 212.232 313.046 211.018 314.72C211.933 314.991 212.895 315.063 213.84 314.932C212.429 315.962 212.274 318.022 212.104 319.786C212.084 320.441 211.915 321.083 211.61 321.663C210.792 323.074 208.675 323.497 208.505 325.063C209.794 325.396 211.143 325.42 212.443 325.134C211.602 327.735 210.435 330.219 208.971 332.528C208.072 334.002 206.98 335.349 205.725 336.535L209.141 336.676C208.964 337.694 209.176 338.741 209.733 339.611L225.173 338.327Z" fill="#02284C"/>
<path d="M278.308 320.421C278.527 318.966 279.078 317.58 279.917 316.371C280.707 315.495 281.32 314.474 281.724 313.366C281.833 312.105 281.655 310.836 281.202 309.655C280.983 309.06 280.925 308.418 281.034 307.793C281.143 307.169 281.415 306.584 281.823 306.099C280.681 306.703 279.346 306.829 278.111 306.452C278.28 305.393 279.268 304.674 279.903 303.813C281.315 301.894 281.075 299.241 281.498 296.885C282.114 294.377 283.149 291.992 284.561 289.829C283.273 290.595 281.821 291.04 280.327 291.128C282.061 288.123 283.332 284.874 284.095 281.49C283.301 281.948 282.361 282.084 281.47 281.871C283.925 279.049 284.179 275.253 284.504 271.486C284.927 266.575 285.915 263.019 286.438 258.264C286.607 261.453 287.524 266.392 287.75 269.186C287.976 271.98 290.474 275.719 291.01 277.13C290.782 276.819 290.485 276.565 290.142 276.389C289.799 276.212 289.42 276.118 289.034 276.114C290.029 280.036 291.23 283.903 292.633 287.699L290.643 287.868C292.501 290.625 293.601 293.822 293.833 297.139L291.998 297.294C292.605 298.705 291.758 300.426 292.393 301.823C292.681 302.328 293.022 302.801 293.409 303.234C295.413 305.929 294.821 310.388 297.643 312.096C296.42 312.131 295.201 311.945 294.044 311.545C293.536 311.799 293.706 312.576 294.044 313.069C295.357 315.271 297.474 317.063 298.095 319.56C298.142 319.669 298.166 319.787 298.166 319.906C298.166 320.025 298.142 320.142 298.095 320.252C297.968 320.449 297.587 320.463 297.516 320.252L298.335 321.663L278.308 320.421Z" fill="#02284C"/>
<path d="M233.231 329.409C233.375 328.396 233.752 327.43 234.332 326.587C234.875 325.987 235.296 325.287 235.574 324.527C235.652 323.66 235.531 322.787 235.221 321.973C235.071 321.565 235.03 321.124 235.105 320.696C235.179 320.267 235.365 319.866 235.645 319.532C234.859 319.947 233.94 320.033 233.09 319.772C233.217 319.038 233.881 318.558 234.318 317.966C235.306 316.639 235.123 314.819 235.419 313.196C235.836 311.457 236.548 309.801 237.522 308.3C236.635 308.831 235.633 309.141 234.6 309.203C235.795 307.141 236.67 304.909 237.197 302.585C236.651 302.902 236.005 302.998 235.391 302.853C237.084 300.878 237.254 298.31 237.48 295.713C237.762 292.341 238.425 289.858 238.806 286.626C238.919 288.813 239.554 292.27 239.709 294.133C239.865 295.996 241.572 298.62 241.953 299.594C241.792 299.371 241.58 299.191 241.334 299.068C241.088 298.946 240.817 298.884 240.542 298.888C241.224 301.583 242.049 304.239 243.012 306.847L241.601 306.96C242.912 308.856 243.696 311.067 243.873 313.366L242.617 313.464C243.026 314.438 242.447 315.623 242.885 316.583C243.08 316.931 243.312 317.257 243.576 317.557C244.988 319.405 244.536 322.467 246.512 323.652C245.672 323.675 244.836 323.546 244.042 323.271C243.689 323.441 243.816 323.977 244.042 324.315C244.945 325.825 246.399 327.067 246.865 328.774C246.897 328.85 246.914 328.932 246.914 329.014C246.914 329.097 246.897 329.178 246.865 329.254C246.78 329.395 246.512 329.409 246.47 329.254L247.034 330.228L233.231 329.409Z" fill="#02284C"/>
<path d="M266.736 259.746C266.765 260.873 266.593 261.996 266.228 263.062C265.931 263.767 265.48 264.388 265.141 265.065C264.134 266.928 263.551 268.991 263.433 271.105C264.353 271.095 265.251 270.831 266.03 270.343C264.492 282.746 261.514 281.053 260.173 285.864C262.84 285.173 263.532 283.847 265.621 283.141C264.519 284.617 263.894 286.394 263.828 288.235C263.885 289.276 263.843 290.32 263.701 291.353C263.405 292.651 262.53 293.738 262.107 294.994C261.584 296.546 261.726 298.394 260.695 299.636C259.806 300.652 258.084 301.4 258.395 302.712C259.98 302.808 261.559 302.456 262.953 301.696C259.425 308.088 255.798 314.819 255.643 322.128L282.204 320.717C281.78 317.599 279.381 315.073 278.195 312.251C276.657 308.625 276.897 304.293 274.695 300.963C275.964 301.857 277.492 302.308 279.042 302.247C277.419 301.042 276.275 299.303 275.81 297.336C274.218 292.76 272.991 288.066 272.141 283.296C272.814 283.971 273.63 284.487 274.529 284.804C275.428 285.122 276.387 285.233 277.335 285.131C274.75 282.798 272.778 279.866 271.591 276.594L270.772 269.214C271.924 269.987 273.321 270.308 274.695 270.117C272.593 268.988 271.873 266.35 271.449 264.007C270.222 257.813 269.474 251.618 268.246 245.438C267.837 248.119 267.667 250.955 267.371 253.015C267.014 255.243 266.802 257.491 266.736 259.746V259.746Z" fill="#02284C"/>
<path d="M227.219 297.379C227.242 298.09 227.066 298.793 226.711 299.41C226.415 299.848 225.963 300.229 225.625 300.638C224.674 301.661 224.076 302.962 223.917 304.349C224.803 304.35 225.683 304.193 226.514 303.883C224.975 311.517 221.997 310.473 220.657 313.436C223.324 313.013 224.002 312.195 226.104 311.757C225.604 312.126 225.187 312.595 224.878 313.135C224.57 313.674 224.377 314.272 224.312 314.89C224.369 315.532 224.326 316.179 224.185 316.809C223.889 317.599 223.014 318.22 222.59 319.052C222.167 319.885 222.209 321.155 221.179 321.874C220.149 322.594 218.568 322.961 218.879 323.765C220.423 323.83 221.966 323.619 223.437 323.144C219.909 327.081 216.282 331.215 216.126 335.717L242.687 334.884C242.264 332.965 239.865 331.455 238.679 329.663C237.141 327.434 237.381 324.767 235.179 322.749C236.555 323.319 238.037 323.589 239.526 323.539C238.1 322.986 236.942 321.905 236.294 320.52C234.74 317.793 233.508 314.895 232.625 311.884C234.203 312.774 236.013 313.168 237.818 313.013C235.459 311.815 233.473 309.995 232.074 307.75L231.256 303.206C232.503 303.691 233.846 303.879 235.179 303.756C234.359 303.462 233.629 302.96 233.06 302.3C232.492 301.64 232.103 300.844 231.933 299.989C230.705 296.179 229.957 292.369 228.729 288.56C228.32 290.21 228.151 291.96 227.854 293.216C227.498 294.578 227.285 295.973 227.219 297.379V297.379Z" fill="#02284C"/>
<path d="M83.5489 297.915C83.5667 298.581 83.4664 299.245 83.2526 299.876C83.0832 300.299 82.8151 300.666 82.6034 301.061C82.0049 302.167 81.6579 303.391 81.5872 304.645C82.1319 304.64 82.6643 304.484 83.1255 304.194C82.2082 311.56 80.4441 310.544 79.6537 313.408C81.2344 312.999 81.6437 312.209 82.8856 311.799C82.2525 312.667 81.8937 313.704 81.8554 314.777C81.8906 315.394 81.867 316.013 81.7848 316.625C81.6155 317.387 81.0933 318.036 80.8392 318.784C80.5852 319.532 80.6134 320.802 79.9642 321.606C79.315 322.411 78.4118 322.65 78.5529 323.441C79.4952 323.496 80.4341 323.286 81.2626 322.834C79.1739 326.63 77.0287 330.623 76.9299 334.955L92.6801 334.151C92.426 332.302 91.0288 330.835 90.295 329.127C89.3917 326.968 89.5329 324.414 88.2203 322.467C88.9754 322.995 89.8821 323.263 90.803 323.229C89.8428 322.501 89.1726 321.456 88.9119 320.28C87.9687 317.567 87.242 314.783 86.7385 311.955C87.1371 312.355 87.6205 312.66 88.1531 312.848C88.6856 313.036 89.2536 313.102 89.8151 313.041C88.2865 311.654 87.1191 309.915 86.4139 307.975L85.934 303.601C86.6188 304.058 87.447 304.249 88.2627 304.137C87.6975 303.708 87.232 303.162 86.8983 302.536C86.5645 301.91 86.3703 301.219 86.3292 300.511C85.5953 296.842 85.1578 293.159 84.4239 289.491C84.184 291.085 84.0852 292.764 83.9018 293.978C83.7006 295.281 83.5828 296.596 83.5489 297.915V297.915Z" fill="#02284C"/>
<path d="M38.5002 338.906C39.7479 329.407 42.2095 320.107 45.8249 311.235L40.5466 313.366C43.1152 307.552 45.9049 301.842 48.9156 296.235L45.5144 297.463C45.7261 294.373 47.8007 291.72 48.5487 288.7C49.0709 286.57 48.9297 284.326 49.3531 282.181C49.7765 280.037 51.0467 277.807 53.1636 277.257C52.8387 276.837 52.366 276.557 51.8417 276.473C51.3174 276.389 50.7808 276.508 50.341 276.805C48.831 273.503 51.9782 270.061 52.9237 266.547C53.7846 263.302 52.7685 259.492 54.6173 256.67C56.7342 258.998 55.5487 262.215 56.3532 265.263C56.7685 266.517 57.3075 267.727 57.9621 268.875C59.3568 271.715 60.1724 274.804 60.3613 277.962L58.2161 277.497C59.6274 279.599 59.7121 282.28 60.1355 284.778C60.7838 288.53 62.2855 292.083 64.5246 295.163C62.8543 295.655 61.0991 295.789 59.3734 295.558C62.0548 297.463 62.196 301.202 62.577 304.547C62.6181 305.764 62.9366 306.956 63.5085 308.032C65.0327 310.515 68.942 311.432 69.2666 314.325C66.8802 314.951 64.379 315 61.9702 314.466C63.5257 319.281 65.6832 323.88 68.3916 328.153C70.0534 330.878 72.0704 333.369 74.3896 335.561L68.0529 335.83C68.3732 337.71 67.9807 339.642 66.952 341.248L38.5002 338.906Z" fill="#02284C"/>
<path d="M81.2485 335.618C81.0295 334.163 80.479 332.777 79.6396 331.568C78.85 330.692 78.2367 329.671 77.8332 328.563C77.7239 327.302 77.9024 326.033 78.3554 324.852C78.5731 324.259 78.6303 323.619 78.5212 322.997C78.4122 322.375 78.1408 321.793 77.7344 321.31C78.8782 321.909 80.2127 322.031 81.4461 321.649C81.2767 320.59 80.2888 319.871 79.6538 319.01C78.2424 317.091 78.4824 314.438 78.059 312.082C77.4432 309.574 76.4078 307.189 74.9965 305.026C76.2835 305.792 77.7355 306.237 79.2304 306.325C77.4955 303.32 76.2251 300.071 75.4622 296.687C76.2563 297.145 77.1957 297.281 78.0872 297.068C75.6315 294.246 75.3775 290.45 75.0529 286.683C74.6295 281.772 73.6416 278.216 73.1194 273.461C72.9501 276.65 72.0327 281.589 71.8069 284.383C71.5811 287.177 69.1537 290.789 68.575 292.2C68.8029 291.889 69.1 291.635 69.443 291.459C69.7859 291.282 70.1652 291.188 70.5509 291.184C69.5564 295.106 68.3551 298.973 66.952 302.769L68.942 302.938C67.0839 305.695 65.9839 308.892 65.7524 312.209L67.5871 312.364C66.9803 313.775 67.827 315.496 67.1919 316.893C66.9038 317.398 66.5632 317.871 66.1758 318.304C64.1859 320.999 64.7645 325.458 61.9419 327.166C63.1649 327.201 64.3842 327.015 65.5407 326.615C66.0488 326.869 65.8794 327.646 65.5407 328.139C64.2282 330.341 62.1113 332.133 61.4903 334.63C61.4433 334.739 61.4191 334.857 61.4191 334.976C61.4191 335.095 61.4433 335.212 61.4903 335.322C61.6173 335.519 61.9984 335.533 62.0689 335.322L61.2504 336.733L81.2485 335.618Z" fill="#02284C"/>
<path d="M251.211 281.25C251.189 282.07 251.313 282.887 251.578 283.663C251.79 284.171 252.115 284.623 252.369 285.074C253.102 286.432 253.526 287.936 253.611 289.477C252.94 289.467 252.286 289.271 251.72 288.912C252.834 297.943 255.008 296.715 255.953 300.201C254.006 299.707 253.512 298.789 251.988 298.225C252.793 299.3 253.251 300.594 253.3 301.936C253.256 302.694 253.285 303.455 253.385 304.208C253.597 305.153 254.246 305.944 254.556 306.861C254.937 307.99 254.839 309.344 255.629 310.247C256.419 311.15 257.534 311.531 257.308 312.491C256.151 312.563 254.997 312.308 253.978 311.757C256.546 316.414 259.185 321.31 259.298 326.63L239.949 325.642C240.26 323.37 241.982 321.578 242.871 319.475C243.986 316.837 243.816 313.676 245.411 311.306C244.484 311.958 243.368 312.285 242.236 312.237C243.42 311.358 244.255 310.088 244.593 308.653C245.75 305.323 246.642 301.907 247.26 298.437C246.77 298.93 246.176 299.306 245.522 299.538C244.867 299.77 244.168 299.852 243.478 299.777C245.378 298.082 246.832 295.945 247.711 293.554L248.304 288.178C247.472 288.727 246.47 288.957 245.482 288.827C247.02 288.009 247.514 286.09 247.853 284.383C248.756 279.867 249.264 275.366 250.181 270.851C250.478 272.812 250.605 274.872 250.83 276.368C251.062 277.985 251.189 279.616 251.211 281.25Z" fill="#02284C"/>
<defs>
<linearGradient id="paint0_linear" x1="55.4641" y1="287.769" x2="160.587" y2="179.424" gradientUnits="userSpaceOnUse">
<stop stop-color="#1887A6"/>
<stop offset="0.42" stop-color="#1989A8"/>
<stop offset="0.6" stop-color="#1D90AF"/>
<stop offset="0.72" stop-color="#239CBB"/>
<stop offset="0.83" stop-color="#2DADCD"/>
<stop offset="0.92" stop-color="#38C4E3"/>
<stop offset="1" stop-color="#47DFFF"/>
</linearGradient>
<linearGradient id="paint1_linear" x1="7.04239" y1="244.873" x2="142.423" y2="194.229" gradientUnits="userSpaceOnUse">
<stop stop-color="#0E4764"/>
<stop offset="0.06" stop-color="#104C6A"/>
<stop offset="0.46" stop-color="#1D688D"/>
<stop offset="0.79" stop-color="#2579A2"/>
<stop offset="1" stop-color="#287FAA"/>
</linearGradient>
<linearGradient id="paint2_linear" x1="193.997" y1="275.479" x2="193.997" y2="155.766" gradientUnits="userSpaceOnUse">
<stop stop-color="#0E4764"/>
<stop offset="1" stop-color="#1B8EB8"/>
</linearGradient>
<linearGradient id="paint3_linear" x1="162.06" y1="282.647" x2="162.06" y2="235.377" gradientUnits="userSpaceOnUse">
<stop stop-color="#0E4764"/>
<stop offset="1" stop-color="#0E4764"/>
</linearGradient>
</defs>
</svg>
