<svg width="241" height="228" preserveAspectRatio="xMinYMin slice" viewBox="0 0 241 228" fill="none" xmlns="http://www.w3.org/2000/svg">
<g style="mix-blend-mode:screen">
<path d="M4.25342 93.7677C5.3836 93.7677 6.2998 92.8517 6.2998 91.7217C6.2998 90.5917 5.3836 89.6757 4.25342 89.6757C3.12323 89.6757 2.20703 90.5917 2.20703 91.7217C2.20703 92.8517 3.12323 93.7677 4.25342 93.7677Z" fill="#FDDA01"/>
</g>
<g style="mix-blend-mode:screen">
<path d="M50.8687 197.127C51.9988 197.127 52.915 196.211 52.915 195.081C52.915 193.951 51.9988 193.035 50.8687 193.035C49.7385 193.035 48.8223 193.951 48.8223 195.081C48.8223 196.211 49.7385 197.127 50.8687 197.127Z" fill="#FDDA01"/>
</g>
<g style="mix-blend-mode:screen">
<path d="M170.857 158.916C171.988 158.916 172.904 158 172.904 156.87C172.904 155.74 171.988 154.824 170.857 154.824C169.727 154.824 168.811 155.74 168.811 156.87C168.811 158 169.727 158.916 170.857 158.916Z" fill="#FDDA01"/>
</g>
<g style="mix-blend-mode:screen">
<path d="M219.547 52.7061C220.677 52.7061 221.594 51.7901 221.594 50.6601C221.594 49.5301 220.677 48.6141 219.547 48.6141C218.417 48.6141 217.501 49.5301 217.501 50.6601C217.501 51.7901 218.417 52.7061 219.547 52.7061Z" fill="#FDDA01"/>
</g>
<g style="mix-blend-mode:screen">
<path d="M85.6996 5.94402C86.6661 5.94402 87.4496 5.16065 87.4496 4.19431C87.4496 3.22798 86.6661 2.44461 85.6996 2.44461C84.7331 2.44461 83.9496 3.22798 83.9496 4.19431C83.9496 5.16065 84.7331 5.94402 85.6996 5.94402Z" fill="#FDDA01"/>
</g>
<g style="mix-blend-mode:screen">
<path d="M7.25948 8.24401C8.38965 8.24401 9.30585 7.32798 9.30585 6.19799C9.30585 5.06801 8.38965 4.15198 7.25948 4.15198C6.1293 4.15198 5.2131 5.06801 5.2131 6.19799C5.2131 7.32798 6.1293 8.24401 7.25948 8.24401Z" fill="#FDDA01"/>
</g>
<g style="mix-blend-mode:screen">
<path d="M195.64 227.267C196.77 227.267 197.686 226.351 197.686 225.221C197.686 224.091 196.77 223.175 195.64 223.175C194.51 223.175 193.593 224.091 193.593 225.221C193.593 226.351 194.51 227.267 195.64 227.267Z" fill="#FDDA01"/>
</g>
<g style="mix-blend-mode:screen">
<path d="M222.582 43.5485C223.447 43.5485 224.148 42.8472 224.148 41.9822C224.148 41.1172 223.447 40.416 222.582 40.416C221.716 40.416 221.015 41.1172 221.015 41.9822C221.015 42.8472 221.716 43.5485 222.582 43.5485Z" fill="#FDDA01"/>
</g>
<g style="mix-blend-mode:screen">
<path d="M43.7274 202.39C44.5926 202.39 45.294 201.689 45.294 200.824C45.294 199.959 44.5926 199.258 43.7274 199.258C42.8623 199.258 42.1609 199.959 42.1609 200.824C42.1609 201.689 42.8623 202.39 43.7274 202.39Z" fill="#FDDA01"/>
</g>
<g style="mix-blend-mode:screen">
<path d="M1.62839 2.27532C2.15841 2.27532 2.58807 1.84573 2.58807 1.31581C2.58807 0.785882 2.15841 0.356293 1.62839 0.356293C1.09837 0.356293 0.668701 0.785882 0.668701 1.31581C0.668701 1.84573 1.09837 2.27532 1.62839 2.27532Z" fill="#FDDA01"/>
</g>
<g style="mix-blend-mode:screen">
<path d="M227.888 49.5878C228.418 49.5878 228.848 49.1582 228.848 48.6283C228.848 48.0983 228.418 47.6687 227.888 47.6687C227.358 47.6687 226.928 48.0983 226.928 48.6283C226.928 49.1582 227.358 49.5878 227.888 49.5878Z" fill="#FDDA01"/>
</g>
<g style="mix-blend-mode:screen">
<path d="M239.108 41.6154C239.638 41.6154 240.068 41.1858 240.068 40.6558C240.068 40.1259 239.638 39.6963 239.108 39.6963C238.578 39.6963 238.148 40.1259 238.148 40.6558C238.148 41.1858 238.578 41.6154 239.108 41.6154Z" fill="#FDDA01"/>
</g>
<g style="mix-blend-mode:screen">
<path d="M237.16 68.3124C237.69 68.3124 238.12 67.8828 238.12 67.3529C238.12 66.823 237.69 66.3934 237.16 66.3934C236.63 66.3934 236.201 66.823 236.201 67.3529C236.201 67.8828 236.63 68.3124 237.16 68.3124Z" fill="#FDDA01"/>
</g>
<g style="mix-blend-mode:screen">
<path d="M188.513 219.732C189.043 219.732 189.472 219.302 189.472 218.772C189.472 218.243 189.043 217.813 188.513 217.813C187.983 217.813 187.553 218.243 187.553 218.772C187.553 219.302 187.983 219.732 188.513 219.732Z" fill="#FDDA01"/>
</g>
<g style="mix-blend-mode:screen">
<path d="M48.0461 207.555C48.5761 207.555 49.0057 207.125 49.0057 206.595C49.0057 206.065 48.5761 205.636 48.0461 205.636C47.516 205.636 47.0864 206.065 47.0864 206.595C47.0864 207.125 47.516 207.555 48.0461 207.555Z" fill="#FDDA01"/>
</g>
</svg>
